<svg id="Layer_1" enable-background="new 0 0 512 512" height="512" viewBox="0 0 512 512" width="512" xmlns="http://www.w3.org/2000/svg"><g><g><path clip-rule="evenodd" d="m23.741 246.817 56.623 16.793 56.506-16.793c.818-5.666.701-11.653-.613-17.844-1.197-5.783-3.446-11.74-6.892-17.786-2.716-4.76-6.687-10.163-11.564-15.742-22.544-25.876-64.128-55.49-86.263-42.902-21.726 12.383-18.076 61.623-7.797 94.274z" fill="#f9f6f6" fill-rule="evenodd"/></g><g><path clip-rule="evenodd" d="m197.671 105.265-17.585-.443-52.241-1.288c-3.008-.082-5.491-2.071-5.491-4.553v-22.633h68.631c8.653.927 13.094 3.678 14.453 7.726 1.762 5.254-1.648 12.692-7.767 21.191z" fill="#e29d7b" fill-rule="evenodd"/></g><g><path clip-rule="evenodd" d="m324.552 108.444 181.958 4.556c3.008.088 5.49-2.044 5.49-4.556v-32.097h-200.385c-8.381 7.827-11.827 22.459 6.191 31.95z" fill="#e29d7b" fill-rule="evenodd"/></g><g><path clip-rule="evenodd" d="m512 44.227v32.121h-389.645v-22.633c0-2.514 2.483-4.502 5.491-4.554l378.664-9.498c3.007-.082 5.49 2.05 5.49 4.564z" fill="#e29d7b" fill-rule="evenodd"/></g><g><path clip-rule="evenodd" d="m56.126 246.817h49.906c1.927-6.542 1.285-13.785-2.365-20.181-7.096-12.471-22.953-16.851-35.451-9.725-10.688 6.075-15.419 18.604-12.09 29.906z" fill="#ffd772" fill-rule="evenodd"/></g><g><path clip-rule="evenodd" d="m184.44 246.817c.876-5.228 9.724-5.695 13.375-11.828 19.244-32.272-7.709-54.614-7.213-81.891-.029-2.424-5.87-4.76-5.548-7.038-2.103-1.168-4.293-2.015-6.629-2.482-20.879-4.176-45.409 24.007-60.624 51.868-6.629 11.127 9.286 51.372 16.47 51.372l26.238 16.793z" fill="#f9f6f6" fill-rule="evenodd"/></g><g><path clip-rule="evenodd" d="m122.006 436.388 95.754 17.961 95.783-17.961c42.927-18.02 77.006-53.299 93.388-97.049l-181.199-23.364-197.114 23.364c16.382 43.749 50.461 79.029 93.388 97.049z" fill="#fbc7b8" fill-rule="evenodd"/></g><g><path clip-rule="evenodd" d="m415.894 246.822-64.304 20.295-46.513-20.295c-10.93-19.635-2.575-26.548 12.702-48.985 2.05-.979 4.11-1.885 6.191-2.71 7.52-3.008 15.175-4.996 22.808-5.924 0 0 .01-.01.01 0 12.311-1.494 24.518-.185 35.84 4.172 1.844.701 3.657 1.484 5.439 2.359 16.907 8.243 32.71 23.86 27.827 51.088z" fill="#e29d7b" fill-rule="evenodd"/></g><g><path clip-rule="evenodd" d="m313.543 436.388c42.927-18.02 77.006-53.299 93.388-97.049h-41.116c-16.412 43.749-50.461 79.029-93.388 97.049z" fill="#fbb49e" fill-rule="evenodd"/></g><g><path clip-rule="evenodd" d="m117.801 195.446c-22.544-25.876-64.128-55.49-86.263-42.902-3.3 1.869-6.016 4.614-8.206 8.002 23.04-5.228 59.572 21.553 80.189 45.239 4.877 5.549 8.848 10.952 11.564 15.712 3.417 6.045 5.665 12.003 6.892 17.815.526 2.541.876 5.052 1.022 7.506h13.871c.818-5.666.701-11.653-.613-17.844-1.197-5.783-3.446-11.74-6.892-17.786-2.716-4.761-6.687-10.164-11.564-15.742z" fill="#e5e4ed" fill-rule="evenodd"/></g><g><path clip-rule="evenodd" d="m184.616 153.098c-.029-.263-.029-.526-.029-.789-.001.264-.001.526.029.789zm6.366 76.781c19.244-32.272-6.892-49.473-6.366-76.78-.029-.263-.029-.526-.029-.789 0-.35 0-.701.029-1.081.029-1.752.204-3.475.438-5.169-2.103-1.168-4.293-2.015-6.629-2.482-3.183-.643-6.454-.526-9.753.234-.088 1.314-.146 2.658-.117 4.03-.496 26.781 24.617 43.837 7.447 74.94 6.191 6.016 9.9 15.128 8.439 24.036.875-5.228 2.89-10.806 6.541-16.939z" fill="#e5e4ed" fill-rule="evenodd"/></g><g><path clip-rule="evenodd" d="m103.667 226.637c-7.096-12.471-22.953-16.851-35.451-9.725-3.533 2.015-6.454 4.731-8.615 7.915 11.301-3.271 23.741 1.489 29.786 12.12 1.781 3.154 2.862 6.513 3.241 9.871h13.404c1.928-6.542 1.286-13.785-2.365-20.181z" fill="#fbba58" fill-rule="evenodd"/></g><g><path clip-rule="evenodd" d="m415.896 246.817c4.877-27.219-10.922-42.844-27.83-51.08-1.781-.876-3.592-1.665-5.432-2.366-4.643-1.782-9.461-3.067-14.338-3.826 16.178 9.638 30.691 27.307 25.99 57.271h21.61z" fill="#ce8b6b" fill-rule="evenodd"/></g><g><path clip-rule="evenodd" d="m136.87 246.817h47.57c2.278-13.785-7.855-28.095-20.412-30.578-12.557-2.512-22.398 3.213-27.771 12.733 1.314 6.193 1.431 12.18.613 17.845z" fill="#ffd772" fill-rule="evenodd"/></g><g><path clip-rule="evenodd" d="m184.44 246.817c1.46-8.908-2.249-18.02-8.439-24.036-3.387-3.3-7.534-5.666-11.973-6.542-7.125-1.431-13.345-.204-18.397 2.833 2.395-.146 21.58 15.099 21.288 27.745z" fill="#fbba58" fill-rule="evenodd"/></g><g><path clip-rule="evenodd" d="m28.618 339.339h378.313c6.892-18.37 10.659-38.229 10.659-58.907l-188.967-13.318-210.664 13.319c0 20.677 3.767 40.536 10.659 58.906z" fill="#f37c7c" fill-rule="evenodd"/></g><g><path clip-rule="evenodd" d="m406.931 339.339c6.892-18.37 10.659-38.229 10.659-58.907h-39.948-1.197c0 20.677-3.767 40.537-10.63 58.907z" fill="#ee6161" fill-rule="evenodd"/></g><g><path clip-rule="evenodd" d="m136.87 246.817h-30.837-49.907-32.385-6.95c-9.228 0-16.791 7.565-16.791 16.793 0 9.258 7.563 16.822 16.791 16.822h1.168 399.63 1.168c9.228 0 16.791-7.564 16.791-16.822 0-9.229-7.563-16.793-16.791-16.793h-2.862-110.821-30.166-30.137-30.166-30.165z" fill="#365e7d" fill-rule="evenodd"/></g><g><path clip-rule="evenodd" d="m435.549 263.61c0-9.229-7.563-16.793-16.791-16.793h-2.862-38.255c9.228 0 16.791 7.564 16.791 16.793 0 9.258-7.563 16.822-16.791 16.822h39.948 1.168c9.229.001 16.792-7.564 16.792-16.822z" fill="#2b4d66" fill-rule="evenodd"/></g><g><path clip-rule="evenodd" d="m184.44 246.817h39.773c.876-5.228 2.891-10.806 6.57-16.939 19.215-32.272-6.892-49.473-6.395-76.78-.496-27.278 25.61-44.509 6.395-76.751h-39.802c17.521 29.38-2.599 46.29-5.928 69.713-.234 1.694-.409 3.417-.438 5.169-.029.643-.029 1.256 0 1.869-.526 27.307 25.61 44.509 6.366 76.78-3.65 6.134-5.665 11.712-6.541 16.939z" fill="#ffd772" fill-rule="evenodd"/></g><g><path clip-rule="evenodd" d="m235.135 246.817h49.41c.876-5.228 2.891-10.806 6.541-16.939 19.244-32.272-6.862-49.473-6.366-76.78-.496-27.278 25.61-44.509 6.366-76.751h-49.41c19.244 32.242-6.892 49.473-6.395 76.751-.496 27.307 25.639 44.509 6.395 76.78-3.65 6.134-5.665 11.712-6.541 16.939z" fill="#ffd772" fill-rule="evenodd"/></g><g><path clip-rule="evenodd" d="m274.908 246.817h30.166c.876-5.228 2.891-10.806 6.541-16.939 7.417-12.441 8.089-22.634 6.162-32.038-3.095-14.982-12.849-27.949-12.528-44.742-.321-16.735 9.403-29.672 12.499-44.655 1.957-9.404 1.314-19.626-6.132-32.096h-30.137c19.215 32.242-6.892 49.473-6.395 76.751-.496 27.307 25.61 44.509 6.395 76.78-3.68 6.134-5.695 11.712-6.571 16.939z" fill="#fbba58" fill-rule="evenodd"/></g><g><path clip-rule="evenodd" d="m214.606 246.817h30.166c.847-5.228 2.891-10.806 6.541-16.939 19.215-32.272-6.892-49.473-6.395-76.78-.496-27.278 25.61-44.509 6.395-76.751h-30.166c19.215 32.242-6.892 49.473-6.395 76.751-.496 27.307 25.61 44.509 6.395 76.78-3.65 6.134-5.665 11.712-6.541 16.939z" fill="#fbba58" fill-rule="evenodd"/></g><g><path clip-rule="evenodd" d="m126.445 472.339h182.659c2.453 0 4.439-1.986 4.439-4.439v-31.512h-191.537v31.512c0 2.453 1.986 4.439 4.439 4.439z" fill="#f37c7c" fill-rule="evenodd"/></g><g><path clip-rule="evenodd" d="m313.543 467.9v-31.512h-41.117v31.512c0 2.453-2.015 4.439-4.439 4.439h41.117c2.453 0 4.439-1.986 4.439-4.439z" fill="#ee6161" fill-rule="evenodd"/></g><g><path d="m359.77 223.149c-.628.165-1.257.237-1.875.237-3.461 0-6.614-2.349-7.489-5.852-2.73-10.909-6.619-14.958-18.044-19.481-2.277-.907-5.408-2.447-8.391-2.926 7.52-3.008 15.175-4.996 22.808-5.924 0 0 .01-.01.01 0 8.478 4.626 15.288 11.291 18.605 24.58 1.041 4.143-1.483 8.335-5.624 9.366z" fill="#ce8b6b"/></g><g><path d="m65.187 317.62c-1.969 0-3.937-.751-5.442-2.256l-.029-.029c-3.018-3.017-3.018-7.909 0-10.927 3.017-3.017 7.909-3.017 10.927 0s3.032 7.924.015 10.941c-1.513 1.512-3.493 2.271-5.471 2.271z" fill="#ffd772"/></g><g><path d="m116.057 317.62c-1.969 0-3.937-.751-5.442-2.256l-.029-.029c-3.018-3.017-3.018-7.909 0-10.927 3.017-3.017 7.909-3.017 10.927 0s3.032 7.924.015 10.941c-1.513 1.512-3.493 2.271-5.471 2.271z" fill="#ffd772"/></g><g><path d="m166.897 317.62c-1.969 0-3.937-.751-5.442-2.256l-.029-.029c-3.018-3.017-3.018-7.909 0-10.927 3.017-3.017 7.909-3.017 10.927 0s3.032 7.924.015 10.941c-1.512 1.512-3.492 2.271-5.471 2.271z" fill="#ffd772"/></g><g><path d="m217.768 317.62c-1.969 0-3.937-.751-5.442-2.256l-.029-.029c-3.018-3.017-3.018-7.909 0-10.927 3.017-3.017 7.909-3.017 10.927 0s3.032 7.924.015 10.941c-1.513 1.512-3.493 2.271-5.471 2.271z" fill="#ffd772"/></g><g><path d="m268.637 317.62c-1.969 0-3.937-.751-5.442-2.256l-.029-.029c-3.018-3.017-3.018-7.909 0-10.927 3.017-3.017 7.909-3.017 10.927 0s3.032 7.924.015 10.941c-1.512 1.512-3.492 2.271-5.471 2.271z" fill="#ffd772"/></g><g><path d="m319.478 317.62c-1.969 0-3.937-.751-5.442-2.256l-.029-.029c-3.018-3.017-3.018-7.909 0-10.927 3.017-3.017 7.909-3.017 10.927 0s3.032 7.924.015 10.941c-1.512 1.512-3.492 2.271-5.471 2.271z" fill="#ffd772"/></g><g><path d="m370.348 317.62c-1.969 0-3.937-.751-5.442-2.256l-.029-.029c-3.018-3.017-3.018-7.909 0-10.927 3.017-3.017 7.909-3.017 10.927 0s3.032 7.924.015 10.941c-1.513 1.512-3.493 2.271-5.471 2.271z" fill="#ffd772"/></g><g><path d="m512 68.622h-389.645v7.726 7.726h83.084 100.741 205.82z" fill="#ce8b6b"/></g></g></svg>