<svg id="Layer_1" enable-background="new 0 0 512 512" height="512" viewBox="0 0 512 512" width="512" xmlns="http://www.w3.org/2000/svg"><g><g><path d="m239.727 234.264c-.383 0-.77-.029-1.16-.088-4.156-.635-7.01-4.519-6.375-8.675l30.321-198.355c.452-2.955 2.592-5.373 5.471-6.179l73.817-20.684c4.051-1.13 8.249 1.227 9.383 5.276 1.135 4.048-1.228 8.249-5.276 9.383l-69.087 19.358-29.579 193.502c-.576 3.765-3.82 6.462-7.515 6.462z" fill="#ee6161"/></g><g><path clip-rule="evenodd" d="m378.98 148.46-121.28 10.93-.69.06-14.53-1.29-109.49-9.7c19.31-42.22 66.63-72.18 122.06-72.51.32-.01 5.923 2.327 5.923 2.327l9.377-1.667c49.54 4.64 90.9 33.05 108.63 71.85z" fill="#cbe2ff" fill-rule="evenodd"/></g><g><path clip-rule="evenodd" d="m245.126 76.338c32.219 7.681 78.822 41.368 85.064 72.121h30.292 18.497c-17.731-38.799-59.087-67.211-108.629-71.855-4.714-.442-8.807 1.461-8.807 1.461s-6.177-2.129-6.494-2.126c-3.355.022-6.663.163-9.923.399z" fill="#bed8fb" fill-rule="evenodd"/></g><g><path clip-rule="evenodd" d="m137.825 190.835 3.884 40.908s17.548 5.265 89.437 11.766c71.86 6.473 128.014-8.774 140.326-24.453l2.675-28.221-118.147-21.202z" fill="#cbe2ff" fill-rule="evenodd"/></g><g><path clip-rule="evenodd" d="m350.04 217.819-1.208 10.845c11.104-1.812 18.929-4.891 22.64-9.608l2.675-28.221h-13.664-8.084-214.574l1.669 17.635h200.162c8.054-.001 11.045 2.272 10.384 9.349z" fill="#bed8fb" fill-rule="evenodd"/></g><g><path d="m270.35 76.61-12.65 82.78-10.46 68.41c-.57 3.77-3.82 6.46-7.51 6.46-.39 0-.77-.03-1.16-.08-4.16-.64-7.01-4.52-6.38-8.68l10.29-67.34 12.57-82.21c.32-.01.63-.01.95-.01 4.85 0 9.64.23 14.35.67z" fill="#f37c7c"/></g><g><path clip-rule="evenodd" d="m129.741 148.46c-9.436 0-17.145 7.739-17.145 17.174v8.026c0 9.436 7.71 17.174 17.145 17.174h8.084 236.322 8.084c9.436 0 17.174-7.739 17.174-17.174v-8.026c0-9.436-7.738-17.174-17.174-17.174h-3.251-245.988z" fill="#f9f6f6" fill-rule="evenodd"/></g><g><path clip-rule="evenodd" d="m377.656 165.634v8.026c0 9.436-7.71 17.174-17.174 17.174h13.664 8.084c9.436 0 17.174-7.739 17.174-17.174v-8.026c0-9.436-7.738-17.174-17.174-17.174h-3.251-18.497c9.465 0 17.174 7.738 17.174 17.174z" fill="#e5e4ed" fill-rule="evenodd"/></g><g><path clip-rule="evenodd" d="m141.708 231.743 4.545 47.87 110.754 25.057 108.74-25.057 5.725-60.557c-12.312 15.679-69.904 13.204-141.793 6.703-71.861-6.473-87.971 5.984-87.971 5.984z" fill="#ffd772" fill-rule="evenodd"/></g><g><path clip-rule="evenodd" d="m154.164 363.241 12.111 127.845c1.093 11.45 9.407 20.914 20.914 20.914h137.622c11.478 0 19.821-9.465 20.914-20.914l12.082-127.845-100.8-25.431z" fill="#ffd772" fill-rule="evenodd"/></g><g><path clip-rule="evenodd" d="m348.832 228.665-4.833 50.948h21.748l5.725-60.557c-3.712 4.718-11.536 7.796-22.64 9.609z" fill="#fbba58" fill-rule="evenodd"/></g><g><path clip-rule="evenodd" d="m336.088 363.241-12.111 127.845c-1.093 11.449-9.407 20.914-20.914 20.914h21.748c11.478 0 19.821-9.465 20.914-20.914l12.082-127.845z" fill="#fbba58" fill-rule="evenodd"/></g><g><path clip-rule="evenodd" d="m146.253 279.613 7.911 83.628h87.654c-7.623-10.385-12.399-25.258-12.399-41.8s4.775-31.443 12.399-41.829h-95.565z" fill="#f9f6f6" fill-rule="evenodd"/></g><g><path clip-rule="evenodd" d="m284.595 321.441c0 16.542-4.775 31.415-12.399 41.8h85.611l7.94-83.628h-93.551c7.623 10.385 12.399 25.287 12.399 41.828z" fill="#f9f6f6" fill-rule="evenodd"/></g><g><path clip-rule="evenodd" d="m343.999 279.613-7.911 83.628h21.719l7.94-83.628z" fill="#e5e4ed" fill-rule="evenodd"/></g><g><path clip-rule="evenodd" d="m231.059 279.613c-7.623 10.385-12.399 25.287-12.399 41.829s4.775 31.415 12.399 41.8c6.847 9.292 15.937 14.959 25.948 14.959s19.13-5.667 25.948-14.959c7.623-10.385 12.399-25.258 12.399-41.8s-4.775-31.443-12.399-41.829c-6.818-9.292-15.937-14.959-25.948-14.959-10.011-.001-19.102 5.667-25.948 14.959z" fill="#f37c7c" fill-rule="evenodd"/></g><g><path clip-rule="evenodd" d="m261.581 280.015c4.315 5.84 7.71 13.118 9.838 21.317 1.668 6.358 2.589 13.262 2.589 20.512 0 6.904-.834 13.521-2.388 19.648-2.129 8.544-5.581 16.11-10.04 22.151-4.171 5.696-9.205 10.011-14.786 12.543 3.251 1.323 6.674 2.014 10.212 2.014 10.011 0 19.13-5.667 25.948-14.959 3.481-4.718 6.358-10.414 8.458-16.743 2.532-7.566 3.941-16.081 3.941-25.057 0-8.861-1.381-17.261-3.826-24.74-2.1-6.473-5.034-12.255-8.573-17.088-6.818-9.292-15.937-14.959-25.948-14.959-3.884 0-7.623.863-11.133 2.445 5.927 2.416 11.306 6.904 15.708 12.916z" fill="#ee6161" fill-rule="evenodd"/></g><g><path clip-rule="evenodd" d="m204.334 452.163c0 10.098 8.199 18.296 18.296 18.296s18.296-8.199 18.296-18.296-8.199-18.296-18.296-18.296c-10.097-.001-18.296 8.198-18.296 18.296z" fill="#e29d7b" fill-rule="evenodd"/></g><g><path clip-rule="evenodd" d="m282.207 437.232c0 10.098 8.17 18.296 18.267 18.296 10.126 0 18.296-8.199 18.296-18.296s-8.17-18.296-18.296-18.296c-10.097 0-18.267 8.199-18.267 18.296z" fill="#e29d7b" fill-rule="evenodd"/></g><g><path clip-rule="evenodd" d="m214.748 435.65c6.156 2.934 10.414 9.235 10.414 16.513s-4.258 13.578-10.385 16.513c2.359 1.151 5.034 1.784 7.853 1.784 10.097 0 18.296-8.199 18.296-18.296s-8.199-18.296-18.296-18.296c-2.819-.002-5.494.631-7.882 1.782z" fill="#ce8b6b" fill-rule="evenodd"/></g><g><path clip-rule="evenodd" d="m292.592 420.719c6.185 2.934 10.443 9.234 10.443 16.513 0 7.278-4.258 13.578-10.414 16.513 2.388 1.151 5.063 1.784 7.853 1.784 10.126 0 18.296-8.199 18.296-18.296s-8.17-18.296-18.296-18.296c-2.819-.001-5.495.632-7.882 1.782z" fill="#ce8b6b" fill-rule="evenodd"/></g></g></svg>