<svg id="Layer_1" enable-background="new 0 0 512 512" height="512" viewBox="0 0 512 512" width="512" xmlns="http://www.w3.org/2000/svg"><g><g clip-rule="evenodd" fill="#a7e9a6" fill-rule="evenodd"><path d="m218.398 159.45-14.598-20.676c-24.323-34.377-59.555-39.734-87.277-16.019-1.916 1.617-3.781 3.389-5.614 5.295-1.751 1.823-7.613 9.035-8.818 10.724l-55.692 78.726s-7.314 10.91-8.633 13.248c-17.008 30.102-18.677 64.603 10.209 78.366h37.262l67.693-76.11z"/><path d="m241.968 275.703c-1.11-16.208 5.286-35.073 16.353-51.864.73-1.081 1.46-2.132 2.219-3.212l.584-.818-42.723-60.362-65.471 73.562-67.69 76.103h135.41 43.686c-14.571-6.951-21.375-19.158-22.368-33.409z"/></g><g><path clip-rule="evenodd" d="m241.968 275.703c-1.11-16.208 5.286-35.073 16.353-51.864.73-1.081 1.46-2.132 2.219-3.212l.584-.818-42.723-60.362-21.989 24.735 25.172 35.628-.584.818c-.73 1.081-1.46 2.132-2.19 3.212-3.417 5.169-4.03 5.695-6.483 11.126-10.863 24.151-6.687 60.8 21.376 74.146h30.633c-14.571-6.951-21.375-19.158-22.368-33.409z" fill="#7fdbae" fill-rule="evenodd"/></g><g><path clip-rule="evenodd" d="m218.402 159.447-14.601-20.676c-19.653-27.772-46.431-36.591-70.611-26.458 11.243 4.702 21.931 13.55 31.1 26.458l14.601 20.676 17.521 24.735z" fill="#7fdbae" fill-rule="evenodd"/></g><g><path d="m100.329 231.686c-1.473 1.308-3.297 1.957-5.13 1.957-2.132 0-4.244-.876-5.769-2.596l-29.298-32.945 4.584-6.469 4.461-6.305c.474.33.907.721 1.308 1.164l30.483 34.284c2.843 3.194 2.555 8.077-.639 10.91z" fill="#26bb9e"/></g><g><path d="m130.277 138.259-13.588-15.329c-.051-.062-.113-.124-.165-.175-1.916 1.617-3.781 3.389-5.614 5.295-1.751 1.823-3.472 3.77-5.141 5.851l12.939 14.608c1.525 1.72 3.647 2.606 5.779 2.606 1.823 0 3.657-.649 5.12-1.947 3.194-2.832 3.492-7.715.67-10.909zm28.299 31.833-2.256-2.534c-2.823-3.194-7.706-3.492-10.899-.67-3.204 2.833-3.492 7.716-.67 10.91l2.246 2.534c1.525 1.731 3.657 2.606 5.79 2.606 1.823 0 3.647-.639 5.12-1.937 3.193-2.822 3.492-7.705.669-10.909z" fill="#26bb9e"/></g><g><path d="m82.995 277.677c-2.136 0-4.262-.88-5.789-2.606l-3.825-4.322c-2.828-3.195-2.531-8.078.665-10.906 3.195-2.828 8.078-2.53 10.906.665l3.825 4.322c2.828 3.195 2.531 8.078-.665 10.906-1.469 1.301-3.297 1.941-5.117 1.941z" fill="#26bb9e"/></g><g><path d="m60.595 244.77c-1.473 1.308-3.307 1.947-5.141 1.947-2.122 0-4.244-.865-5.769-2.586l-11.919-13.382c1.319-2.339 2.73-4.646 4.224-6.912.701-1.082 1.432-2.132 2.194-3.214l2.215-3.121c.474.33.907.721 1.308 1.174l13.516 15.185c2.844 3.182 2.556 8.065-.628 10.909z" fill="#26bb9e"/></g><g><path d="m276.954 244.77c-1.473 1.308-3.307 1.947-5.141 1.947-2.122 0-4.244-.865-5.769-2.586l-11.94-13.403c1.319-2.328 2.72-4.626 4.213-6.892.731-1.082 1.463-2.132 2.225-3.214l.577-.814 1.638-2.308c.474.33.907.721 1.308 1.174l13.516 15.185c2.845 3.184 2.556 8.067-.627 10.911z" fill="#26bb9e"/></g><path d="m235.169 313.961-71.923-80.899 60.928-68.479c2.837-3.188 2.552-8.072-.636-10.908-3.189-2.838-8.072-2.552-10.908.636l-59.722 67.123-59.677-67.124c-2.838-3.189-7.722-3.472-10.908-.635-3.188 2.837-3.472 7.72-.635 10.908l60.878 68.475-71.863 80.903c-2.837 3.188-2.552 8.072.636 10.908 1.472 1.31 3.306 1.954 5.133 1.954 2.129 0 4.248-.875 5.775-2.591l70.656-79.547 70.722 79.548c1.527 1.716 3.645 2.59 5.774 2.59 1.827 0 3.661-.644 5.134-1.955 3.189-2.836 3.473-7.719.636-10.907z" fill="#26bb9e"/><g><path d="m255.026 298.473c-2.129 0-4.248-.875-5.775-2.591l-53.295-60.279c-2.837-3.188-2.551-8.072.637-10.908s8.072-2.551 10.908.637l53.295 60.279c2.837 3.188 2.551 8.072-.637 10.908-1.472 1.31-3.306 1.954-5.133 1.954z" fill="#26bb9e"/></g><g><path clip-rule="evenodd" d="m59.718 403.758h392.564c10.396 0 18.923-8.527 18.923-18.953v-18.923l-206.152-15.75-224.257 15.75v18.923c-.001 10.426 8.497 18.953 18.922 18.953z" fill="#bed8fb" fill-rule="evenodd"/></g><g><path clip-rule="evenodd" d="m471.205 384.805v-18.923h-52.681-33.378v18.923c0 10.425-8.527 18.953-18.923 18.953h86.059c10.396 0 18.923-8.527 18.923-18.953z" fill="#8eaadf" fill-rule="evenodd"/></g><path clip-rule="evenodd" d="m478.038 220.627-43.277-61.18-14.63-20.676c-25.99-36.737-64.449-40.329-92.863-10.717-3.066 3.183-6.045 6.775-8.848 10.717 0 0-62.996 89.629-64.315 91.957-8.437 14.938-13.094 30.947-12.136 44.978.989 14.247 7.798 26.455 22.365 33.409h37.231l67.723-76.108.002.002-67.72 76.103h135.439 37.233c32.21-15.332 26.457-56.45 3.796-88.485z" fill="#a7e9a6" fill-rule="evenodd"/><g><path clip-rule="evenodd" d="m420.13 138.771c-20.149-28.473-47.775-37.029-72.421-25.669 13.754 3.68 26.983 13.287 37.992 28.852l14.63 20.646 13.988 19.8 20.441-22.953z" fill="#7fdbae" fill-rule="evenodd"/></g><g><path clip-rule="evenodd" d="m488.481 298.009c-3.029 3.853-6.964 7.201-11.878 9.89-.762.433-1.545.834-2.359 1.216h-28.855c7.52-5.038 12.321-11.837 14.804-19.666.968-3.029 1.586-6.212 1.875-9.509.34-3.822.258-7.798-.227-11.878-1.679-14.556-8.344-30.298-18.234-44.277l-29.288-41.382 20.439-22.952 43.278 61.172c18.419 26.032 25.661 58.071 10.445 77.386z" fill="#7fdbae" fill-rule="evenodd"/></g><g><path d="m316.698 231.686c-1.473 1.308-3.307 1.957-5.141 1.957-2.122 0-4.244-.876-5.769-2.596l-29.319-32.945 4.574-6.469 4.471-6.305c.464.33.907.721 1.298 1.164l30.514 34.284c2.844 3.184 2.556 8.067-.628 10.91z" fill="#26bb9e"/></g><g><path d="m374.893 170.061-2.277-2.545c-2.843-3.173-7.737-3.441-10.91-.597-3.173 2.854-3.441 7.737-.597 10.91l2.277 2.545c1.535 1.7 3.637 2.565 5.759 2.565 1.834 0 3.678-.649 5.151-1.968 3.183-2.854 3.451-7.737.597-10.91zm-42.021-47.316c.062.062.113.124.175.185l13.588 15.329c2.823 3.194 2.524 8.077-.67 10.91-1.463 1.298-3.297 1.947-5.12 1.947-2.132 0-4.255-.886-5.779-2.606l-12.939-14.608z" fill="#26bb9e"/></g><g><path d="m488.481 298.009c-3.029 3.853-6.964 7.201-11.878 9.89l-16.411-18.451-47.903-53.848c-2.843-3.183-2.555-8.066.628-10.91 3.194-2.833 8.077-2.545 10.91.639l38.014 42.732z" fill="#26bb9e"/></g><g><path d="m299.353 277.677c-2.126 0-4.242-.872-5.769-2.583l-3.855-4.322c-2.841-3.185-2.561-8.069.623-10.909 3.185-2.84 8.069-2.561 10.909.623l3.855 4.322c2.841 3.185 2.561 8.069-.623 10.909-1.473 1.313-3.31 1.96-5.14 1.96z" fill="#26bb9e"/></g><path d="m453.566 316.342-73.902-83.291 60.868-68.468c2.837-3.188 2.552-8.071-.635-10.908-3.188-2.837-8.072-2.552-10.908.635l-59.668 67.118-59.731-67.118c-2.838-3.189-7.722-3.472-10.908-.635-3.188 2.837-3.472 7.72-.635 10.908l60.937 68.474-71.924 80.904c-2.837 3.188-2.552 8.071.635 10.908 1.472 1.31 3.306 1.955 5.134 1.955 2.128 0 4.248-.875 5.774-2.59l70.724-79.554 72.696 81.936c1.527 1.716 3.645 2.59 5.774 2.59 1.827 0 3.661-.644 5.134-1.955 3.188-2.837 3.472-7.721.635-10.909z" fill="#26bb9e"/><g><path clip-rule="evenodd" d="m40.795 365.882h430.409 12.382c15.623 0 28.414-12.762 28.414-28.385v-21.727c0-3.68-3.008-6.658-6.658-6.658h-31.1-37.233-135.439-37.233-43.686-135.41-37.262-41.321c-3.679-.001-6.658 2.978-6.658 6.658v21.727c0 15.624 12.761 28.385 28.384 28.385z" fill="#f9f6f6" fill-rule="evenodd"/></g><g><path clip-rule="evenodd" d="m512 337.497v-21.727c0-3.68-3.008-6.658-6.658-6.658h-31.1-28.852-5.11c3.65 0 6.658 2.979 6.658 6.658v21.727c0 15.624-12.79 28.385-28.414 28.385h52.681 12.382c15.623 0 28.413-12.762 28.413-28.385z" fill="#e5e4ed" fill-rule="evenodd"/></g></g></svg>